<?xml version="1.0" encoding="iso-8859-1"?>
<!-- Generator: Adobe Illustrator 19.0.0, SVG Export Plug-In . SVG Version: 6.00 Build 0)  -->
<svg version="1.1" id="Layer_1" xmlns="http://www.w3.org/2000/svg" xmlns:xlink="http://www.w3.org/1999/xlink" x="0px" y="0px"
	 viewBox="0 0 489.2 489.2" style="enable-background:new 0 0 489.2 489.2;" xml:space="preserve">
<g>
	<g>
		<path id="XMLID_353_" style="fill:#3C92CA;" d="M143.05,474.4h-70.2c-2.1,0-3.9-1.8-3.9-3.9V286.8c0-2.1,1.8-3.9,3.9-3.9h70.1
			c2.1,0,3.9,1.8,3.9,3.9v183.7C146.95,472.6,145.15,474.4,143.05,474.4z"/>
		<path d="M264.85,88.2V9.1c0-5-4.1-9.1-9.1-9.1s-9.1,4.1-9.1,9.1v79.1c0,5,4.1,9.1,9.1,9.1C260.75,97.2,264.85,93.2,264.85,88.2z"
			/>
		<path d="M420.15,177.8h-79.1c-5,0-9.1,4.1-9.1,9.1s4.1,9.1,9.1,9.1h79.1c5,0,9.1-4.1,9.1-9.1
			C429.15,181.8,425.15,177.8,420.15,177.8z"/>
		<path d="M82.35,186.8c0,5,4.1,9.1,9.1,9.1h79.1c5,0,9.1-4.1,9.1-9.1s-4.1-9.1-9.1-9.1h-79.1C86.45,177.8,82.35,181.8,82.35,186.8z
			"/>
		<path d="M131.55,60.9c1.7-1.7,2.7-4,2.7-6.4s-1-4.7-2.7-6.4s-4-2.6-6.4-2.6c-2.4,0-4.7,0.9-6.4,2.6c-1.7,1.7-2.7,4-2.7,6.4
			s1,4.7,2.7,6.4s4,2.7,6.4,2.7C127.45,63.6,129.85,62.6,131.55,60.9z"/>
		<path d="M168.75,98.2c3.5-3.5,3.5-9.3,0-12.8s-9.3-3.5-12.8,0s-3.5,9.3,0,12.8c1.8,1.8,4.1,2.7,6.4,2.7
			C164.65,100.8,167.05,100,168.75,98.2z"/>
		<path d="M150.15,79.6c3.5-3.5,3.5-9.3,0-12.8s-9.3-3.5-12.8,0s-3.5,9.3,0,12.8c1.8,1.8,4.1,2.7,6.4,2.7
			C146.05,82.2,148.35,81.3,150.15,79.6z"/>
		<path d="M187.45,116.8c1.7-1.7,2.7-4,2.7-6.4s-1-4.7-2.7-6.4c-1.7-1.7-4-2.6-6.4-2.6s-4.7,1-6.4,2.6c-1.7,1.7-2.7,4-2.7,6.4
			s1,4.7,2.7,6.4c1.7,1.7,4,2.7,6.4,2.7C183.35,119.5,185.75,118.5,187.45,116.8z"/>
		<path d="M384.45,66.6c1.7-1.7,2.7-4,2.7-6.4s-1-4.7-2.7-6.4s-4-2.7-6.4-2.7s-4.7,1-6.4,2.7c-1.7,1.7-2.7,4-2.7,6.4s1,4.7,2.7,6.4
			c1.7,1.7,4,2.7,6.4,2.7S382.75,68.3,384.45,66.6z"/>
		<path d="M340.75,106.6c2.3,0,4.6-0.9,6.4-2.7c3.5-3.5,3.5-9.3,0-12.8s-9.3-3.5-12.8,0s-3.5,9.3,0,12.8
			C336.15,105.7,338.45,106.6,340.75,106.6z"/>
		<path d="M365.75,85.3c3.5-3.5,3.5-9.3,0-12.8s-9.3-3.5-12.8,0s-3.5,9.3,0,12.8c1.8,1.8,4.1,2.7,6.4,2.7S364.05,87,365.75,85.3z"/>
		<path d="M328.55,122.5c1.7-1.7,2.7-4,2.7-6.4s-1-4.7-2.7-6.4c-1.7-1.7-4-2.7-6.4-2.7s-4.7,1-6.4,2.7c-1.7,1.7-2.6,4-2.6,6.4
			s1,4.7,2.7,6.4s4,2.7,6.4,2.7C324.55,125.2,326.85,124.2,328.55,122.5z"/>
		<path style="fill:#3C92CA;" d="M406.35,439.3l21.1-134.1c0.1-0.5,0.1-0.9,0.1-1.4c0-28.2-22.9-51.1-51.1-51.1h-79.3v-57.1c0-24.1-7-41.4-20.9-51.6
			c-22-16.1-52.2-6.9-53.5-6.5c-3.8,1.2-6.3,4.7-6.3,8.6v64.1c0,50.6-58.6,67.8-61.1,68.5c-1.2,0.3-2.2,0.9-3.1,1.6
			c-3.1-3.9-7.9-6.4-13.2-6.4h-62.2c-9.3,0-16.9,7.6-16.9,16.9v175.8c0,9.3,7.6,16.9,16.9,16.9h62.2c6.2,0,11.7-3.4,14.6-8.4
			c9.2,8.8,21.6,14.1,35.2,14.1h156.8C380.35,489.1,402.45,471,406.35,439.3z M137.85,465.3h-59.8V291.9h59.8V465.3z M155.95,438.1
			V296.2c1.4,0.3,2.8,0.3,4.3-0.1c3-0.8,74.3-21.5,74.3-85.9v-56.8c7.8-1.2,21.3-1.9,31,5.2c9,6.6,13.5,19,13.5,37v66.3
			c0,5,4.1,9.1,9.1,9.1h88.4c17.9,0,32.6,14.4,32.9,32.3l-21,133.5c0,0.1,0,0.2,0,0.3c-2.8,22.6-17.1,34-42.7,34h-156.8
			C170.75,471,155.95,456.2,155.95,438.1z"/>
	</g>
</g>
<g>
</g>
<g>
</g>
<g>
</g>
<g>
</g>
<g>
</g>
<g>
</g>
<g>
</g>
<g>
</g>
<g>
</g>
<g>
</g>
<g>
</g>
<g>
</g>
<g>
</g>
<g>
</g>
<g>
</g>
</svg>
